# xmcd
#
# Track frame offsets:
#	150
#	23088
#	41568
#	59071
#	77748
#	91865
#	105105
#	125089
#	142569
#	156273
#	169899
#	188505
#
# Disc length: 2741 seconds
#
# Revision: 0
# Processed by: cddbd v1.5.2PL0 Copyright (c) Steve Scherf et al.
# Submitted via: audiograbber 1.83.01
#
DISCID=8e0ab30c
DTITLE=Cdpool - Street December 09 CD1
DYEAR=2009
DGENRE=R&B
TTITLE0=Beyonce Ft Lady Gaga - Video Phone
TTITLE1=Cheri V Ft Wiley - Skool Daze
TTITLE2=Timbaland Ft Nelly Furtado and SoShy - Morning After Dark
TTITLE3=Koolade Ft J-Ro - Get Addicted (Main Mix)
TTITLE4=New Boyz - You're A Jerk (Clean Version)
TTITLE5=Mr Hudson - Anyone But Him (Remix Ft Tinie Tempah and Ghettz)
TTITLE6=Neresa Maye - Ultimate Love (Rishi Rish Remix)
TTITLE7=Etana - August Town (Mackies Mix)
TTITLE8=Iyaz - Replay
TTITLE9=Xploder Ft Ashley - So True (Original Mix)
TTITLE10=Bee-Q and Unique - Move On (2 Step Radio Edit)
TTITLE11=Baby Blue - Good Girl (Original Mix)
EXTD=
EXTT0=
EXTT1=
EXTT2=
EXTT3=
EXTT4=
EXTT5=
EXTT6=
EXTT7=
EXTT8=
EXTT9=
EXTT10=
EXTT11=
PLAYORDER=
